<?xml version="1.0" standalone="no"?>
<!DOCTYPE svg PUBLIC "-//W3C//DTD SVG 20010904//EN"
 "http://www.w3.org/TR/2001/REC-SVG-20010904/DTD/svg10.dtd">
<svg version="1.0" xmlns="http://www.w3.org/2000/svg"
 width="400.000000pt" height="300.000000pt" viewBox="0 0 400.000000 300.000000"
 preserveAspectRatio="xMidYMid meet">

<g transform="translate(0.000000,300.000000) scale(0.100000,-0.100000)"
fill="#000000" stroke="none">
<path d="M0 1500 l0 -1500 2000 0 2000 0 0 1500 0 1500 -2000 0 -2000 0 0
-1500z m2190 669 c407 -108 628 -594 440 -969 -153 -303 -511 -466 -823 -373
-215 63 -403 247 -469 456 -103 329 45 684 347 835 164 82 324 98 505 51z"/>
<path d="M1905 2110 c-152 -25 -298 -111 -388 -228 -93 -121 -131 -232 -131
-382 0 -121 17 -188 72 -295 45 -88 162 -207 247 -251 109 -57 158 -69 290
-68 103 0 130 4 192 26 187 66 324 196 395 373 30 74 32 89 32 200 1 133 -17
206 -77 320 -66 123 -221 246 -365 289 -65 19 -201 27 -267 16z m-109 -389
c-19 -21 -11 -43 127 -371 l44 -105 61 -3 c80 -4 123 15 146 63 25 52 15 96
-32 135 -35 29 -36 30 -12 30 32 0 84 32 106 65 9 14 17 44 17 67 0 34 -6 47
-32 70 -30 27 -77 46 -87 35 -7 -6 -34 -80 -105 -281 -27 -77 -51 -141 -53
-143 -6 -6 -66 149 -61 157 3 5 25 64 49 133 41 117 43 127 29 147 l-16 23
130 -5 c110 -4 135 -8 170 -27 50 -28 73 -67 73 -121 0 -54 -21 -92 -63 -115
l-35 -18 19 -31 c26 -43 25 -119 -2 -157 -38 -54 -69 -63 -240 -67 l-156 -4
-45 103 c-25 57 -74 167 -107 244 -44 99 -71 148 -93 168 l-32 27 108 0 c107
0 109 0 92 -19z"/>
</g>
</svg>
